<?xml version="1.0" encoding="iso-8859-1"?>
<!-- Generator: Adobe Illustrator 19.0.0, SVG Export Plug-In . SVG Version: 6.00 Build 0)  -->
<svg version="1.1" id="Layer_1" xmlns="http://www.w3.org/2000/svg" xmlns:xlink="http://www.w3.org/1999/xlink" x="0px" y="0px"
	 viewBox="0 0 511.102 511.102" style="enable-background:new 0 0 511.102 511.102;" xml:space="preserve">
<g transform="translate(1 1)">
	<polygon style="fill:#CCCCCC;" points="250.509,254.591 7.982,425.258 7.982,257.286 7.982,83.925 	"/>
	<polygon style="fill:#E2E3E5;" points="7.982,115.363 7.982,393.819 205.596,254.591 	"/>
	<polygon style="fill:#CCCCCC;" points="502.018,254.591 259.491,425.258 259.491,257.286 259.491,83.925 	"/>
	<polygon style="fill:#E2E3E5;" points="259.491,115.363 259.491,393.819 457.105,254.591 	"/>
	<g>
		<path style="fill:#B6B6B6;" d="M7.982,434.241c-1.796,0-2.695,0-4.491-0.898C0.796,431.546-1,428.851-1,425.258V83.925
			c0-3.593,1.796-6.288,4.491-8.084c3.593-0.898,7.186-0.898,9.881,0.898l242.526,170.667c2.695,1.796,3.593,4.491,3.593,7.186
			c0,2.695-1.797,5.389-3.593,7.186L13.372,432.444C11.575,433.342,9.779,434.241,7.982,434.241z M16.965,100.991v306.302
			l218.274-152.702L16.965,100.991z"/>
		<path style="fill:#B6B6B6;" d="M259.491,434.241c-1.797,0-2.695,0-4.491-0.898c-2.695-1.797-4.491-4.491-4.491-8.084V83.925
			c0-3.593,1.796-6.288,4.491-8.084c2.695-1.796,6.288-0.898,8.982,0.898l242.526,170.667c2.695,1.796,3.593,4.491,3.593,7.186
			c0,2.695-1.797,5.389-3.593,7.186L263.982,432.444C263.084,433.342,261.288,434.241,259.491,434.241z M268.474,100.991v306.302
			l218.274-152.702L268.474,100.991z"/>
	</g>
</g>
<g>
</g>
<g>
</g>
<g>
</g>
<g>
</g>
<g>
</g>
<g>
</g>
<g>
</g>
<g>
</g>
<g>
</g>
<g>
</g>
<g>
</g>
<g>
</g>
<g>
</g>
<g>
</g>
<g>
</g>
</svg>
