<?xml version="1.0" encoding="iso-8859-1"?>
<!-- Generator: Adobe Illustrator 19.0.0, SVG Export Plug-In . SVG Version: 6.00 Build 0)  -->
<svg version="1.1" id="Layer_1" xmlns="http://www.w3.org/2000/svg" xmlns:xlink="http://www.w3.org/1999/xlink" x="0px" y="0px"
	 viewBox="0 0 512 512" style="enable-background:new 0 0 512 512;" xml:space="preserve">
<g transform="translate(1 1)">
	<polygon style="fill:#CCCCCC;" points="259.491,254.846 502.018,84.179 502.018,252.151 502.018,425.513 	"/>
	<polygon style="fill:#E2E3E5;" points="502.018,394.074 502.018,115.618 304.404,254.846 	"/>
	<polygon style="fill:#CCCCCC;" points="7.982,254.846 250.509,84.179 250.509,252.151 250.509,425.513 	"/>
	<polygon style="fill:#E2E3E5;" points="250.509,394.074 250.509,115.618 52.895,254.846 	"/>
	<g>
		<path style="fill:#B6B6B6;" d="M502.018,434.495c-1.797,0-3.593-0.898-5.389-1.796L254.102,262.032
			c-1.797-1.796-3.593-4.491-3.593-7.186s1.796-5.389,3.593-7.186L496.628,76.993c2.695-1.796,6.288-1.796,8.982-0.898
			c3.593,1.796,5.389,4.491,5.389,8.084v341.333c0,3.593-1.797,6.288-4.491,8.084C504.712,434.495,503.814,434.495,502.018,434.495z
			 M274.761,254.846l218.274,153.6v-307.2L274.761,254.846z"/>
		<path style="fill:#B6B6B6;" d="M250.509,434.495c-1.796,0-3.593-0.898-5.389-1.796L2.593,262.032
			C0.796,260.235-1,257.541-1,254.846s1.796-5.389,3.593-7.186L245.119,76.993c2.695-1.796,6.288-1.796,8.982-0.898
			c3.593,1.796,5.389,4.491,5.389,8.084v341.333c0,3.593-1.797,6.288-4.491,8.084C253.204,434.495,252.305,434.495,250.509,434.495z
			 M23.253,254.846l218.274,153.6v-307.2L23.253,254.846z"/>
	</g>
</g>
<g>
</g>
<g>
</g>
<g>
</g>
<g>
</g>
<g>
</g>
<g>
</g>
<g>
</g>
<g>
</g>
<g>
</g>
<g>
</g>
<g>
</g>
<g>
</g>
<g>
</g>
<g>
</g>
<g>
</g>
</svg>
